Coordinates
version=1
nRows=17
nColumns=33
inDegrees=yes

Units are S.I. units (second, meters, Newtons, ...)
Angles are in degrees.

endheader
time	ground_thorax_rot_x	ground_thorax_rot_y	ground_thorax_rot_z	ground_thorax_tx	ground_thorax_ty	ground_thorax_tz	clav_prot_r	clav_elev_r	scapula_abduction_r	scapula_elevation_r	scapula_upward_rot_r	scapula_winging_r	shoulder_elv_r	plane_of_elev_r	axial_rot_r	elbow_flexion_r	pro_sup_r	wrist_flex_r	wrist_dev_r	clav_prot_l	clav_elev_l	scapula_abduction_l	scapula_elevation_l	scapula_upward_rot_l	scapula_winging_l	shoulder_elv_l	plane_of_elev_l	axial_rot_l	elbow_flexion_l	pro_sup_l	wrist_flex_l	wrist_dev_l
      7.34000000	     37.34285198	      5.97021573	     21.69923924	   -117.65509691	    797.37505830	      0.55572133	     15.69903574	     38.20645355	     37.27762095	     45.00000000	    -41.85245409	  -2599.63190728	     63.97210064	     30.85129737	     67.66336503	    730.92489490	   -333.94441837	     18.01975369	      9.67666183	      9.91783234	    -45.00000000	    -35.13844884	     45.00000000	    -45.00000000	    811.06398046	  -4249.38075210	     19.22300701	    -45.42309839	   2525.30430218	     14.74080490	     11.69424259	    -18.82979274
      7.35000000	     37.37012646	      5.86006924	     21.58657845	   -122.53674465	    798.52813421	     -0.01676096	     15.48096150	     37.95262556	     36.98175181	     45.00000000	    -42.29807990	  -2599.86371624	     64.23239667	     30.91475099	     67.64157752	    731.03462833	   -333.34586394	     18.03252376	      9.64996005	      9.90044239	    -45.00000000	    -35.12849470	     45.00000000	    -45.00000000	    811.39319450	  -4249.13178386	     18.95453313	    -46.10173200	   2525.54557040	     14.79033761	     11.63986200	    -18.92291730
      7.36000000	     37.32427655	      5.68453417	     21.51335022	   -127.48464394	    799.80909570	     -0.59522214	     15.34461801	     37.72092720	     36.84983604	     45.00000000	    -42.97686574	  -2600.03874108	     64.42937970	     31.03387658	     67.70507024	    731.04526188	   -332.60745855	     18.04757391	      9.58500196	     10.00793350	    -45.00000000	    -35.16678870	     45.00000000	    -45.00000000	    811.81198541	  -4248.96871562	     18.71652093	    -47.01383792	   2525.66942632	     14.95545040	     11.69504928	    -19.03180989
      7.37000000	     37.24502279	      5.51981865	     21.42599476	   -132.48444791	    801.22630007	     -1.17479871	     15.27459671	     37.66153831	     36.65627281	     45.00000000	    -43.73742247	  -2600.06389633	     64.76255726	     31.07878338	     67.32159902	    731.15587697	   -331.74984675	     18.10374374	      9.47802873	     10.13771091	    -45.00000000	    -35.19104210	     45.00000000	    -45.00000000	    812.32869129	  -4248.76645945	     18.51258337	    -47.77114444	   2525.86762976	     15.21296397	     11.80445424	    -19.19319858
      7.38000000	     37.23671023	      5.39194912	     21.36854846	   -137.50517950	    802.78287215	     -1.74874934	     15.20042833	     37.52228856	     36.50098027	     45.00000000	    -44.17169770	  -2600.27337598	     64.91288461	     31.04818126	     67.76087031	    731.23808456	   -330.76631660	     18.12690036	      9.34563833	     10.27324433	    -45.00000000	    -35.20664842	     45.00000000	    -45.00000000	    812.82173004	  -4248.54854291	     18.27905181	    -48.79260036	   2526.11559799	     15.64894376	     11.75984603	    -19.36859179
      7.39000000	     37.25002833	      5.22015490	     21.25067374	   -142.53788886	    804.49117389	     -2.31224640	     15.10847626	     37.41918369	     36.32318268	     45.00000000	    -44.46972015	  -2600.49048903	     65.07063206	     31.01915828	     68.20599217	    731.36683989	   -329.73774284	     18.16423216	      9.21294278	     10.38669594	    -45.00000000	    -35.19083369	     45.00000000	    -45.00000000	    813.27309056	  -4248.32966865	     18.03196944	    -49.82469236	   2526.35038012	     16.17408013	     11.65790772	    -19.54749577
      7.40000000	     37.24429082	      5.10981550	     21.15119792	   -147.55670286	    806.35657165	     -2.85980677	     15.05903402	     37.26869116	     36.13549207	     45.00000000	    -44.90333717	  -2600.68380059	     65.27158278	     30.98807018	     68.63991098	    731.53510969	   -328.68838647	     18.21506719	      9.06211042	     10.50866644	    -45.00000000	    -35.18326757	     45.00000000	    -45.00000000	    813.70585619	  -4248.11186581	     17.77364311	    -50.85804269	   2526.57248229	     16.80377411	     11.60391900	    -19.74898729
      7.41000000	     37.26965955	      4.88984747	     21.03700734	   -152.54583946	    808.38818154	     -3.38081418	     14.99440215	     37.07355251	     36.02266810	     45.00000000	    -45.00000000	  -2600.88677448	     65.37516927	     30.88253938	     69.40287747	    731.63622730	   -327.60505392	     18.29974804	      8.98571969	     10.65136864	    -45.00000000	    -35.06841899	     45.00000000	    -45.00000000	    814.16270796	  -4247.84913883	     17.54339910	    -51.91007251	   2526.74676000	     17.53334776	     11.52503652	    -19.94484894
      7.42000000	     37.27619246	      4.83337886	     20.92316742	   -157.48433020	    810.58200770	     -3.87497458	     14.93189315	     37.08079272	     35.79704721	     45.00000000	    -45.00000000	  -2601.23560239	     65.38709691	     30.77517513	     70.63107511	    731.73701725	   -326.57012399	     18.31568889	      8.76149951	     10.73990436	    -45.00000000	    -34.86016953	     45.00000000	    -45.00000000	    814.64938575	  -4247.59474244	     17.39312660	    -53.13815559	   2527.01608857	     18.32113301	     11.41788867	    -20.15871722
      7.43000000	     37.38935288	      4.53352419	     20.51965079	   -162.35903074	    812.93273792	     -4.34124029	     14.79764789	     36.97727429	     35.68422043	     45.00000000	    -45.00000000	  -2601.58966999	     65.43247054	     30.78471861	     70.51584962	    731.90284903	   -325.61145027	     18.32859041	      8.58426935	     10.81150554	    -45.00000000	    -35.11627453	     45.00000000	    -45.00000000	    815.02035253	  -4247.39345333	     17.18661255	    -54.04561886	   2527.40686724	     19.19678522	     11.35430389	    -20.42484801
      7.44000000	     37.46234321	      4.34056120	     20.23524133	   -167.14136625	    815.41707696	     -4.78643152	     14.69618364	     37.00830519	     35.52189618	     45.00000000	    -45.00000000	  -2601.89250474	     65.54986523	     30.74733436	     70.92283857	    732.09002633	   -324.60891628	     18.36408436	      8.41073494	     10.88303543	    -45.00000000	    -35.17803513	     45.00000000	    -45.00000000	    815.43296821	  -4247.22019940	     17.02375839	    -55.03648410	   2527.65309364	     20.17493065	     11.17740860	    -20.62867153
      7.45000000	     37.44811146	      4.23311869	     20.19216161	   -171.81233796	    818.01879653	     -5.21008422	     14.65688568	     36.57838545	     35.46002374	     45.00000000	    -45.00000000	  -2602.24304675	     65.39223181	     30.66069168	     72.47512755	    732.08448561	   -323.60430975	     18.42878538	      8.32964421	     11.01718975	    -45.00000000	    -34.79790345	     45.00000000	    -45.00000000	    815.89037271	  -4246.82622736	     16.85492361	    -56.21271682	   2527.76908077	     21.17824671	     11.09497322	    -20.82404605
      7.46000000	     37.60796505	      3.93864446	     19.76805982	   -176.34847454	    820.71689201	     -5.62106423	     14.50873428	     36.60288749	     35.36696826	     45.00000000	    -45.00000000	  -2602.60716246	     65.60101863	     30.76473484	     72.24004581	    732.32977240	   -322.75016654	     18.44827915	      8.15811016	     11.07717684	    -45.00000000	    -34.95528567	     45.00000000	    -45.00000000	    816.25639977	  -4246.67544778	     16.65679019	    -57.22011959	   2528.16038639	     22.19030358	     10.79639729	    -21.01651847
      7.47000000	     37.61915035	      3.86792706	     19.58214794	   -180.72455163	    823.49190730	     -6.01724076	     14.41195568	     36.55520991	     35.26369165	     45.00000000	    -45.00000000	  -2603.14007875	     65.46903816	     30.81803196	     73.15136326	    732.40208822	   -321.86838475	     18.36293673	      7.86008500	     11.02705218	    -45.00000000	    -35.01658452	     45.00000000	    -45.00000000	    816.68163512	  -4246.39458420	     16.46789544	    -58.30515392	   2528.42115345	     23.27361196	     10.66878125	    -21.21964661
      7.48000000	     37.75372389	      3.82087943	     19.33185922	   -184.92439279	    826.33252487	     -6.39965969	     14.20542947	     36.83271309	     35.14493921	     45.00000000	    -45.00000000	  -2603.55473650	     65.38250690	     30.85168863	     73.82240143	    732.36431720	   -321.07114040	     18.23242457	      7.60355488	     10.96957956	    -45.00000000	    -34.79999636	     45.00000000	    -45.00000000	    817.06362761	  -4246.16377489	     16.36986844	    -59.46436182	   2528.65853350	     24.33346435	     10.37000281	    -21.35017453
      7.49000000	     37.81882253	      3.36884891	     18.62841098	   -188.92719539	    829.22780078	     -6.76075590	     14.25780015	     36.80217281	     34.80563733	     45.00000000	    -45.00000000	  -2603.04441091	     66.15263735	     30.68095549	     71.82416717	    732.72544032	   -320.23513390	     18.57347638	      7.83474585	     11.33217568	    -45.00000000	    -35.09192177	     45.00000000	    -45.00000000	    817.28155462	  -4246.01471322	     16.32406654	    -59.12080099	   2528.91903390	     25.61410677	     10.29018901	    -21.60511342
      7.50000000	     37.91162289	      3.22585797	     18.24344872	   -192.71730484	    832.16187830	     -7.10022398	     14.08731711	     36.85178052	     34.72429608	     45.00000000	    -45.00000000	  -2603.31448552	     66.21793762	     30.67453983	     71.73375648	    732.83597721	   -319.34181325	     18.56929625	      7.69993396	     11.43207354	    -45.00000000	    -35.18407067	     45.00000000	    -45.00000000	    817.60227352	  -4245.85130846	     16.22090864	    -59.57788130	   2529.16439848	     27.00605555	     10.09804157	    -21.79430020
